<?xml version='1.0' encoding='UTF-8'?>
<svg width="74mm" height="74mm" version="1.1" viewBox="0 0 74 74" xmlns="http://www.w3.org/2000/svg"><path d="M0,0H2V2H0zM2,0H4V2H2zM4,0H6V2H4zM6,0H8V2H6zM8,0H10V2H8zM10,0H12V2H10zM12,0H14V2H12zM18,0H20V2H18zM20,0H22V2H20zM24,0H26V2H24zM26,0H28V2H26zM28,0H30V2H28zM30,0H32V2H30zM36,0H38V2H36zM40,0H42V2H40zM42,0H44V2H42zM46,0H48V2H46zM50,0H52V2H50zM56,0H58V2H56zM60,0H62V2H60zM62,0H64V2H62zM64,0H66V2H64zM66,0H68V2H66zM68,0H70V2H68zM70,0H72V2H70zM72,0H74V2H72zM0,2H2V4H0zM12,2H14V4H12zM16,2H18V4H16zM20,2H22V4H20zM24,2H26V4H24zM28,2H30V4H28zM30,2H32V4H30zM34,2H36V4H34zM42,2H44V4H42zM46,2H48V4H46zM48,2H50V4H48zM50,2H52V4H50zM52,2H54V4H52zM56,2H58V4H56zM60,2H62V4H60zM72,2H74V4H72zM0,4H2V6H0zM4,4H6V6H4zM6,4H8V6H6zM8,4H10V6H8zM12,4H14V6H12zM18,4H20V6H18zM22,4H24V6H22zM24,4H26V6H24zM26,4H28V6H26zM30,4H32V6H30zM34,4H36V6H34zM36,4H38V6H36zM42,4H44V6H42zM52,4H54V6H52zM56,4H58V6H56zM60,4H62V6H60zM64,4H66V6H64zM66,4H68V6H66zM68,4H70V6H68zM72,4H74V6H72zM0,6H2V8H0zM4,6H6V8H4zM6,6H8V8H6zM8,6H10V8H8zM12,6H14V8H12zM18,6H20V8H18zM26,6H28V8H26zM28,6H30V8H28zM30,6H32V8H30zM32,6H34V8H32zM34,6H36V8H34zM36,6H38V8H36zM40,6H42V8H40zM42,6H44V8H42zM46,6H48V8H46zM48,6H50V8H48zM52,6H54V8H52zM54,6H56V8H54zM56,6H58V8H56zM60,6H62V8H60zM64,6H66V8H64zM66,6H68V8H66zM68,6H70V8H68zM72,6H74V8H72zM0,8H2V10H0zM4,8H6V10H4zM6,8H8V10H6zM8,8H10V10H8zM12,8H14V10H12zM20,8H22V10H20zM24,8H26V10H24zM30,8H32V10H30zM32,8H34V10H32zM34,8H36V10H34zM36,8H38V10H36zM40,8H42V10H40zM42,8H44V10H42zM46,8H48V10H46zM50,8H52V10H50zM52,8H54V10H52zM54,8H56V10H54zM60,8H62V10H60zM64,8H66V10H64zM66,8H68V10H66zM68,8H70V10H68zM72,8H74V10H72zM0,10H2V12H0zM12,10H14V12H12zM16,10H18V12H16zM18,10H20V12H18zM20,10H22V12H20zM24,10H26V12H24zM30,10H32V12H30zM40,10H42V12H40zM44,10H46V12H44zM50,10H52V12H50zM52,10H54V12H52zM56,10H58V12H56zM60,10H62V12H60zM72,10H74V12H72zM0,12H2V14H0zM2,12H4V14H2zM4,12H6V14H4zM6,12H8V14H6zM8,12H10V14H8zM10,12H12V14H10zM12,12H14V14H12zM16,12H18V14H16zM20,12H22V14H20zM24,12H26V14H24zM28,12H30V14H28zM32,12H34V14H32zM36,12H38V14H36zM40,12H42V14H40zM44,12H46V14H44zM48,12H50V14H48zM52,12H54V14H52zM56,12H58V14H56zM60,12H62V14H60zM62,12H64V14H62zM64,12H66V14H64zM66,12H68V14H66zM68,12H70V14H68zM70,12H72V14H70zM72,12H74V14H72zM16,14H18V16H16zM18,14H20V16H18zM20,14H22V16H20zM22,14H24V16H22zM26,14H28V16H26zM32,14H34V16H32zM36,14H38V16H36zM52,14H54V16H52zM8,16H10V18H8zM10,16H12V18H10zM12,16H14V18H12zM14,16H16V18H14zM18,16H20V18H18zM22,16H24V18H22zM24,16H26V18H24zM28,16H30V18H28zM30,16H32V18H30zM34,16H36V18H34zM38,16H40V18H38zM40,16H42V18H40zM46,16H48V18H46zM48,16H50V18H48zM50,16H52V18H50zM52,16H54V18H52zM54,16H56V18H54zM60,16H62V18H60zM62,16H64V18H62zM70,16H72V18H70zM0,18H2V20H0zM2,18H4V20H2zM4,18H6V20H4zM6,18H8V20H6zM8,18H10V20H8zM14,18H16V20H14zM20,18H22V20H20zM22,18H24V20H22zM24,18H26V20H24zM30,18H32V20H30zM38,18H40V20H38zM42,18H44V20H42zM44,18H46V20H44zM48,18H50V20H48zM56,18H58V20H56zM64,18H66V20H64zM70,18H72V20H70zM72,18H74V20H72zM0,20H2V22H0zM2,20H4V22H2zM6,20H8V22H6zM8,20H10V22H8zM10,20H12V22H10zM12,20H14V22H12zM14,20H16V22H14zM16,20H18V22H16zM18,20H20V22H18zM20,20H22V22H20zM26,20H28V22H26zM32,20H34V22H32zM36,20H38V22H36zM38,20H40V22H38zM40,20H42V22H40zM44,20H46V22H44zM46,20H48V22H46zM50,20H52V22H50zM52,20H54V22H52zM56,20H58V22H56zM58,20H60V22H58zM62,20H64V22H62zM66,20H68V22H66zM4,22H6V24H4zM22,22H24V24H22zM24,22H26V24H24zM26,22H28V24H26zM28,22H30V24H28zM30,22H32V24H30zM32,22H34V24H32zM36,22H38V24H36zM38,22H40V24H38zM42,22H44V24H42zM44,22H46V24H44zM46,22H48V24H46zM52,22H54V24H52zM58,22H60V24H58zM64,22H66V24H64zM68,22H70V24H68zM6,24H8V26H6zM8,24H10V26H8zM12,24H14V26H12zM28,24H30V26H28zM32,24H34V26H32zM36,24H38V26H36zM40,24H42V26H40zM42,24H44V26H42zM44,24H46V26H44zM46,24H48V26H46zM48,24H50V26H48zM54,24H56V26H54zM56,24H58V26H56zM58,24H60V26H58zM60,24H62V26H60zM62,24H64V26H62zM68,24H70V26H68zM0,26H2V28H0zM2,26H4V28H2zM4,26H6V28H4zM6,26H8V28H6zM8,26H10V28H8zM10,26H12V28H10zM14,26H16V28H14zM16,26H18V28H16zM18,26H20V28H18zM22,26H24V28H22zM24,26H26V28H24zM36,26H38V28H36zM40,26H42V28H40zM42,26H44V28H42zM46,26H48V28H46zM50,26H52V28H50zM52,26H54V28H52zM56,26H58V28H56zM58,26H60V28H58zM64,26H66V28H64zM68,26H70V28H68zM0,28H2V30H0zM2,28H4V30H2zM12,28H14V30H12zM14,28H16V30H14zM16,28H18V30H16zM18,28H20V30H18zM20,28H22V30H20zM22,28H24V30H22zM28,28H30V30H28zM30,28H32V30H30zM32,28H34V30H32zM34,28H36V30H34zM36,28H38V30H36zM38,28H40V30H38zM42,28H44V30H42zM44,28H46V30H44zM46,28H48V30H46zM50,28H52V30H50zM54,28H56V30H54zM56,28H58V30H56zM60,28H62V30H60zM62,28H64V30H62zM64,28H66V30H64zM66,28H68V30H66zM68,28H70V30H68zM2,30H4V32H2zM8,30H10V32H8zM10,30H12V32H10zM16,30H18V32H16zM22,30H24V32H22zM26,30H28V32H26zM30,30H32V32H30zM32,30H34V32H32zM34,30H36V32H34zM36,30H38V32H36zM40,30H42V32H40zM44,30H46V32H44zM46,30H48V32H46zM56,30H58V32H56zM60,30H62V32H60zM64,30H66V32H64zM68,30H70V32H68zM70,30H72V32H70zM2,32H4V34H2zM12,32H14V34H12zM18,32H20V34H18zM20,32H22V34H20zM24,32H26V34H24zM34,32H36V34H34zM36,32H38V34H36zM42,32H44V34H42zM44,32H46V34H44zM48,32H50V34H48zM54,32H56V34H54zM58,32H60V34H58zM60,32H62V34H60zM62,32H64V34H62zM66,32H68V34H66zM68,32H70V34H68zM72,32H74V34H72zM4,34H6V36H4zM6,34H8V36H6zM10,34H12V36H10zM16,34H18V36H16zM18,34H20V36H18zM20,34H22V36H20zM22,34H24V36H22zM24,34H26V36H24zM26,34H28V36H26zM30,34H32V36H30zM32,34H34V36H32zM38,34H40V36H38zM40,34H42V36H40zM42,34H44V36H42zM44,34H46V36H44zM50,34H52V36H50zM56,34H58V36H56zM58,34H60V36H58zM62,34H64V36H62zM64,34H66V36H64zM0,36H2V38H0zM2,36H4V38H2zM12,36H14V38H12zM20,36H22V38H20zM30,36H32V38H30zM32,36H34V38H32zM36,36H38V38H36zM38,36H40V38H38zM40,36H42V38H40zM42,36H44V38H42zM52,36H54V38H52zM54,36H56V38H54zM60,36H62V38H60zM62,36H64V38H62zM68,36H70V38H68zM6,38H8V40H6zM8,38H10V40H8zM10,38H12V40H10zM16,38H18V40H16zM20,38H22V40H20zM24,38H26V40H24zM26,38H28V40H26zM28,38H30V40H28zM30,38H32V40H30zM48,38H50V40H48zM52,38H54V40H52zM58,38H60V40H58zM62,38H64V40H62zM68,38H70V40H68zM72,38H74V40H72zM0,40H2V42H0zM2,40H4V42H2zM6,40H8V42H6zM8,40H10V42H8zM10,40H12V42H10zM12,40H14V42H12zM14,40H16V42H14zM18,40H20V42H18zM22,40H24V42H22zM28,40H30V42H28zM32,40H34V42H32zM40,40H42V42H40zM48,40H50V42H48zM50,40H52V42H50zM54,40H56V42H54zM58,40H60V42H58zM60,40H62V42H60zM68,40H70V42H68zM70,40H72V42H70zM72,40H74V42H72zM4,42H6V44H4zM8,42H10V44H8zM10,42H12V44H10zM14,42H16V44H14zM20,42H22V44H20zM24,42H26V44H24zM26,42H28V44H26zM28,42H30V44H28zM32,42H34V44H32zM36,42H38V44H36zM38,42H40V44H38zM46,42H48V44H46zM52,42H54V44H52zM54,42H56V44H54zM58,42H60V44H58zM60,42H62V44H60zM64,42H66V44H64zM66,42H68V44H66zM68,42H70V44H68zM70,42H72V44H70zM8,44H10V46H8zM12,44H14V46H12zM14,44H16V46H14zM16,44H18V46H16zM18,44H20V46H18zM20,44H22V46H20zM24,44H26V46H24zM32,44H34V46H32zM40,44H42V46H40zM46,44H48V46H46zM50,44H52V46H50zM52,44H54V46H52zM54,44H56V46H54zM56,44H58V46H56zM0,46H2V48H0zM6,46H8V48H6zM16,46H18V48H16zM18,46H20V48H18zM20,46H22V48H20zM22,46H24V48H22zM26,46H28V48H26zM30,46H32V48H30zM32,46H34V48H32zM40,46H42V48H40zM42,46H44V48H42zM44,46H46V48H44zM48,46H50V48H48zM50,46H52V48H50zM56,46H58V48H56zM62,46H64V48H62zM68,46H70V48H68zM72,46H74V48H72zM2,48H4V50H2zM10,48H12V50H10zM12,48H14V50H12zM14,48H16V50H14zM16,48H18V50H16zM18,48H20V50H18zM30,48H32V50H30zM36,48H38V50H36zM38,48H40V50H38zM42,48H44V50H42zM44,48H46V50H44zM46,48H48V50H46zM48,48H50V50H48zM50,48H52V50H50zM54,48H56V50H54zM58,48H60V50H58zM60,48H62V50H60zM62,48H64V50H62zM70,48H72V50H70zM0,50H2V52H0zM8,50H10V52H8zM10,50H12V52H10zM26,50H28V52H26zM28,50H30V52H28zM30,50H32V52H30zM36,50H38V52H36zM42,50H44V52H42zM50,50H52V52H50zM52,50H54V52H52zM58,50H60V52H58zM64,50H66V52H64zM66,50H68V52H66zM8,52H10V54H8zM12,52H14V54H12zM14,52H16V54H14zM20,52H22V54H20zM22,52H24V54H22zM28,52H30V54H28zM30,52H32V54H30zM32,52H34V54H32zM36,52H38V54H36zM38,52H40V54H38zM40,52H42V54H40zM42,52H44V54H42zM50,52H52V54H50zM52,52H54V54H52zM54,52H56V54H54zM58,52H60V54H58zM64,52H66V54H64zM68,52H70V54H68zM4,54H6V56H4zM6,54H8V56H6zM10,54H12V56H10zM14,54H16V56H14zM16,54H18V56H16zM20,54H22V56H20zM26,54H28V56H26zM28,54H30V56H28zM38,54H40V56H38zM40,54H42V56H40zM42,54H44V56H42zM48,54H50V56H48zM52,54H54V56H52zM60,54H62V56H60zM62,54H64V56H62zM68,54H70V56H68zM0,56H2V58H0zM2,56H4V58H2zM4,56H6V58H4zM10,56H12V58H10zM12,56H14V58H12zM28,56H30V58H28zM30,56H32V58H30zM32,56H34V58H32zM34,56H36V58H34zM36,56H38V58H36zM38,56H40V58H38zM46,56H48V58H46zM48,56H50V58H48zM52,56H54V58H52zM56,56H58V58H56zM58,56H60V58H58zM60,56H62V58H60zM62,56H64V58H62zM64,56H66V58H64zM66,56H68V58H66zM68,56H70V58H68zM70,56H72V58H70zM16,58H18V60H16zM22,58H24V60H22zM24,58H26V60H24zM28,58H30V60H28zM36,58H38V60H36zM38,58H40V60H38zM42,58H44V60H42zM46,58H48V60H46zM48,58H50V60H48zM50,58H52V60H50zM52,58H54V60H52zM56,58H58V60H56zM64,58H66V60H64zM66,58H68V60H66zM70,58H72V60H70zM0,60H2V62H0zM2,60H4V62H2zM4,60H6V62H4zM6,60H8V62H6zM8,60H10V62H8zM10,60H12V62H10zM12,60H14V62H12zM16,60H18V62H16zM18,60H20V62H18zM20,60H22V62H20zM24,60H26V62H24zM30,60H32V62H30zM32,60H34V62H32zM40,60H42V62H40zM42,60H44V62H42zM44,60H46V62H44zM46,60H48V62H46zM48,60H50V62H48zM52,60H54V62H52zM56,60H58V62H56zM60,60H62V62H60zM64,60H66V62H64zM66,60H68V62H66zM68,60H70V62H68zM0,62H2V64H0zM12,62H14V64H12zM16,62H18V64H16zM18,62H20V64H18zM24,62H26V64H24zM26,62H28V64H26zM34,62H36V64H34zM40,62H42V64H40zM46,62H48V64H46zM48,62H50V64H48zM52,62H54V64H52zM56,62H58V64H56zM64,62H66V64H64zM68,62H70V64H68zM70,62H72V64H70zM72,62H74V64H72zM0,64H2V66H0zM4,64H6V66H4zM6,64H8V66H6zM8,64H10V66H8zM12,64H14V66H12zM16,64H18V66H16zM18,64H20V66H18zM20,64H22V66H20zM26,64H28V66H26zM28,64H30V66H28zM30,64H32V66H30zM34,64H36V66H34zM36,64H38V66H36zM42,64H44V66H42zM44,64H46V66H44zM46,64H48V66H46zM50,64H52V66H50zM56,64H58V66H56zM58,64H60V66H58zM60,64H62V66H60zM62,64H64V66H62zM64,64H66V66H64zM66,64H68V66H66zM68,64H70V66H68zM70,64H72V66H70zM0,66H2V68H0zM4,66H6V68H4zM6,66H8V68H6zM8,66H10V68H8zM12,66H14V68H12zM26,66H28V68H26zM30,66H32V68H30zM32,66H34V68H32zM34,66H36V68H34zM36,66H38V68H36zM38,66H40V68H38zM42,66H44V68H42zM44,66H46V68H44zM48,66H50V68H48zM50,66H52V68H50zM52,66H54V68H52zM56,66H58V68H56zM60,66H62V68H60zM62,66H64V68H62zM64,66H66V68H64zM66,66H68V68H66zM0,68H2V70H0zM4,68H6V70H4zM6,68H8V70H6zM8,68H10V70H8zM12,68H14V70H12zM18,68H20V70H18zM22,68H24V70H22zM28,68H30V70H28zM42,68H44V70H42zM44,68H46V70H44zM46,68H48V70H46zM48,68H50V70H48zM50,68H52V70H50zM54,68H56V70H54zM60,68H62V70H60zM62,68H64V70H62zM70,68H72V70H70zM0,70H2V72H0zM12,70H14V72H12zM20,70H22V72H20zM24,70H26V72H24zM26,70H28V72H26zM30,70H32V72H30zM34,70H36V72H34zM36,70H38V72H36zM40,70H42V72H40zM44,70H46V72H44zM46,70H48V72H46zM54,70H56V72H54zM58,70H60V72H58zM62,70H64V72H62zM68,70H70V72H68zM70,70H72V72H70zM0,72H2V74H0zM2,72H4V74H2zM4,72H6V74H4zM6,72H8V74H6zM8,72H10V74H8zM10,72H12V74H10zM12,72H14V74H12zM20,72H22V74H20zM24,72H26V74H24zM28,72H30V74H28zM30,72H32V74H30zM32,72H34V74H32zM34,72H36V74H34zM36,72H38V74H36zM38,72H40V74H38zM40,72H42V74H40zM42,72H44V74H42zM48,72H50V74H48zM50,72H52V74H50zM68,72H70V74H68zM70,72H72V74H70zM72,72H74V74H72z" id="qr-path" fill="#000000" fill-opacity="1" fill-rule="nonzero" stroke="none" /></svg>