<?xml version='1.0' encoding='UTF-8'?>
<svg width="66mm" height="66mm" version="1.1" viewBox="0 0 66 66" xmlns="http://www.w3.org/2000/svg"><path d="M0,0H2V2H0zM2,0H4V2H2zM4,0H6V2H4zM6,0H8V2H6zM8,0H10V2H8zM10,0H12V2H10zM12,0H14V2H12zM22,0H24V2H22zM24,0H26V2H24zM26,0H28V2H26zM28,0H30V2H28zM32,0H34V2H32zM36,0H38V2H36zM38,0H40V2H38zM40,0H42V2H40zM42,0H44V2H42zM44,0H46V2H44zM48,0H50V2H48zM52,0H54V2H52zM54,0H56V2H54zM56,0H58V2H56zM58,0H60V2H58zM60,0H62V2H60zM62,0H64V2H62zM64,0H66V2H64zM0,2H2V4H0zM12,2H14V4H12zM16,2H18V4H16zM20,2H22V4H20zM22,2H24V4H22zM28,2H30V4H28zM36,2H38V4H36zM38,2H40V4H38zM42,2H44V4H42zM44,2H46V4H44zM52,2H54V4H52zM64,2H66V4H64zM0,4H2V6H0zM4,4H6V6H4zM6,4H8V6H6zM8,4H10V6H8zM12,4H14V6H12zM16,4H18V6H16zM20,4H22V6H20zM26,4H28V6H26zM30,4H32V6H30zM32,4H34V6H32zM38,4H40V6H38zM42,4H44V6H42zM44,4H46V6H44zM48,4H50V6H48zM52,4H54V6H52zM56,4H58V6H56zM58,4H60V6H58zM60,4H62V6H60zM64,4H66V6H64zM0,6H2V8H0zM4,6H6V8H4zM6,6H8V8H6zM8,6H10V8H8zM12,6H14V8H12zM16,6H18V8H16zM20,6H22V8H20zM24,6H26V8H24zM26,6H28V8H26zM28,6H30V8H28zM30,6H32V8H30zM36,6H38V8H36zM38,6H40V8H38zM40,6H42V8H40zM42,6H44V8H42zM44,6H46V8H44zM46,6H48V8H46zM48,6H50V8H48zM52,6H54V8H52zM56,6H58V8H56zM58,6H60V8H58zM60,6H62V8H60zM64,6H66V8H64zM0,8H2V10H0zM4,8H6V10H4zM6,8H8V10H6zM8,8H10V10H8zM12,8H14V10H12zM16,8H18V10H16zM18,8H20V10H18zM20,8H22V10H20zM24,8H26V10H24zM26,8H28V10H26zM28,8H30V10H28zM30,8H32V10H30zM32,8H34V10H32zM36,8H38V10H36zM38,8H40V10H38zM40,8H42V10H40zM42,8H44V10H42zM46,8H48V10H46zM48,8H50V10H48zM52,8H54V10H52zM56,8H58V10H56zM58,8H60V10H58zM60,8H62V10H60zM64,8H66V10H64zM0,10H2V12H0zM12,10H14V12H12zM16,10H18V12H16zM20,10H22V12H20zM26,10H28V12H26zM28,10H30V12H28zM38,10H40V12H38zM40,10H42V12H40zM42,10H44V12H42zM44,10H46V12H44zM48,10H50V12H48zM52,10H54V12H52zM64,10H66V12H64zM0,12H2V14H0zM2,12H4V14H2zM4,12H6V14H4zM6,12H8V14H6zM8,12H10V14H8zM10,12H12V14H10zM12,12H14V14H12zM16,12H18V14H16zM20,12H22V14H20zM24,12H26V14H24zM28,12H30V14H28zM32,12H34V14H32zM36,12H38V14H36zM40,12H42V14H40zM44,12H46V14H44zM48,12H50V14H48zM52,12H54V14H52zM54,12H56V14H54zM56,12H58V14H56zM58,12H60V14H58zM60,12H62V14H60zM62,12H64V14H62zM64,12H66V14H64zM18,14H20V16H18zM20,14H22V16H20zM26,14H28V16H26zM32,14H34V16H32zM34,14H36V16H34zM36,14H38V16H36zM40,14H42V16H40zM44,14H46V16H44zM4,16H6V18H4zM10,16H12V18H10zM12,16H14V18H12zM14,16H16V18H14zM16,16H18V18H16zM18,16H20V18H18zM28,16H30V18H28zM30,16H32V18H30zM46,16H48V18H46zM48,16H50V18H48zM50,16H52V18H50zM54,16H56V18H54zM56,16H58V18H56zM58,16H60V18H58zM60,16H62V18H60zM62,16H64V18H62zM0,18H2V20H0zM4,18H6V20H4zM6,18H8V20H6zM8,18H10V20H8zM10,18H12V20H10zM18,18H20V20H18zM24,18H26V20H24zM26,18H28V20H26zM32,18H34V20H32zM36,18H38V20H36zM38,18H40V20H38zM42,18H44V20H42zM46,18H48V20H46zM48,18H50V20H48zM50,18H52V20H50zM52,18H54V20H52zM54,18H56V20H54zM64,18H66V20H64zM0,20H2V22H0zM2,20H4V22H2zM4,20H6V22H4zM12,20H14V22H12zM16,20H18V22H16zM20,20H22V22H20zM22,20H24V22H22zM24,20H26V22H24zM26,20H28V22H26zM28,20H30V22H28zM30,20H32V22H30zM32,20H34V22H32zM38,20H40V22H38zM46,20H48V22H46zM50,20H52V22H50zM52,20H54V22H52zM54,20H56V22H54zM56,20H58V22H56zM58,20H60V22H58zM64,20H66V22H64zM0,22H2V24H0zM6,22H8V24H6zM8,22H10V24H8zM14,22H16V24H14zM18,22H20V24H18zM20,22H22V24H20zM32,22H34V24H32zM38,22H40V24H38zM40,22H42V24H40zM42,22H44V24H42zM50,22H52V24H50zM54,22H56V24H54zM58,22H60V24H58zM62,22H64V24H62zM64,22H66V24H64zM0,24H2V26H0zM2,24H4V26H2zM4,24H6V26H4zM6,24H8V26H6zM12,24H14V26H12zM14,24H16V26H14zM18,24H20V26H18zM20,24H22V26H20zM24,24H26V26H24zM26,24H28V26H26zM34,24H36V26H34zM38,24H40V26H38zM40,24H42V26H40zM42,24H44V26H42zM46,24H48V26H46zM48,24H50V26H48zM52,24H54V26H52zM54,24H56V26H54zM56,24H58V26H56zM62,24H64V26H62zM64,24H66V26H64zM0,26H2V28H0zM8,26H10V28H8zM10,26H12V28H10zM18,26H20V28H18zM20,26H22V28H20zM24,26H26V28H24zM26,26H28V28H26zM38,26H40V28H38zM40,26H42V28H40zM42,26H44V28H42zM46,26H48V28H46zM48,26H50V28H48zM50,26H52V28H50zM52,26H54V28H52zM54,26H56V28H54zM56,26H58V28H56zM64,26H66V28H64zM4,28H6V30H4zM6,28H8V30H6zM8,28H10V30H8zM12,28H14V30H12zM14,28H16V30H14zM18,28H20V30H18zM24,28H26V30H24zM26,28H28V30H26zM28,28H30V30H28zM30,28H32V30H30zM34,28H36V30H34zM46,28H48V30H46zM54,28H56V30H54zM60,28H62V30H60zM64,28H66V30H64zM4,30H6V32H4zM6,30H8V32H6zM8,30H10V32H8zM10,30H12V32H10zM14,30H16V32H14zM18,30H20V32H18zM20,30H22V32H20zM22,30H24V32H22zM24,30H26V32H24zM32,30H34V32H32zM36,30H38V32H36zM40,30H42V32H40zM44,30H46V32H44zM52,30H54V32H52zM54,30H56V32H54zM56,30H58V32H56zM2,32H4V34H2zM8,32H10V34H8zM12,32H14V34H12zM14,32H16V34H14zM18,32H20V34H18zM20,32H22V34H20zM22,32H24V34H22zM26,32H28V34H26zM32,32H34V34H32zM40,32H42V34H40zM44,32H46V34H44zM46,32H48V34H46zM52,32H54V34H52zM54,32H56V34H54zM58,32H60V34H58zM0,34H2V36H0zM6,34H8V36H6zM14,34H16V36H14zM22,34H24V36H22zM26,34H28V36H26zM30,34H32V36H30zM36,34H38V36H36zM38,34H40V36H38zM40,34H42V36H40zM46,34H48V36H46zM52,34H54V36H52zM60,34H62V36H60zM64,34H66V36H64zM0,36H2V38H0zM4,36H6V38H4zM6,36H8V38H6zM10,36H12V38H10zM12,36H14V38H12zM14,36H16V38H14zM22,36H24V38H22zM26,36H28V38H26zM32,36H34V38H32zM42,36H44V38H42zM46,36H48V38H46zM50,36H52V38H50zM52,36H54V38H52zM56,36H58V38H56zM58,36H60V38H58zM60,36H62V38H60zM64,36H66V38H64zM6,38H8V40H6zM8,38H10V40H8zM14,38H16V40H14zM20,38H22V40H20zM22,38H24V40H22zM28,38H30V40H28zM30,38H32V40H30zM44,38H46V40H44zM46,38H48V40H46zM50,38H52V40H50zM58,38H60V40H58zM62,38H64V40H62zM0,40H2V42H0zM2,40H4V42H2zM6,40H8V42H6zM8,40H10V42H8zM12,40H14V42H12zM14,40H16V42H14zM20,40H22V42H20zM26,40H28V42H26zM28,40H30V42H28zM32,40H34V42H32zM36,40H38V42H36zM40,40H42V42H40zM44,40H46V42H44zM46,40H48V42H46zM48,40H50V42H48zM50,40H52V42H50zM52,40H54V42H52zM54,40H56V42H54zM62,40H64V42H62zM2,42H4V44H2zM4,42H6V44H4zM8,42H10V44H8zM14,42H16V44H14zM16,42H18V44H16zM20,42H22V44H20zM22,42H24V44H22zM28,42H30V44H28zM38,42H40V44H38zM40,42H42V44H40zM42,42H44V44H42zM48,42H50V44H48zM50,42H52V44H50zM54,42H56V44H54zM58,42H60V44H58zM60,42H62V44H60zM62,42H64V44H62zM64,42H66V44H64zM0,44H2V46H0zM2,44H4V46H2zM8,44H10V46H8zM10,44H12V46H10zM12,44H14V46H12zM16,44H18V46H16zM20,44H22V46H20zM22,44H24V46H22zM24,44H26V46H24zM28,44H30V46H28zM30,44H32V46H30zM38,44H40V46H38zM40,44H42V46H40zM48,44H50V46H48zM50,44H52V46H50zM52,44H54V46H52zM54,44H56V46H54zM64,44H66V46H64zM18,46H20V48H18zM20,46H22V48H20zM24,46H26V48H24zM26,46H28V48H26zM30,46H32V48H30zM34,46H36V48H34zM38,46H40V48H38zM40,46H42V48H40zM44,46H46V48H44zM46,46H48V48H46zM48,46H50V48H48zM58,46H60V48H58zM64,46H66V48H64zM0,48H2V50H0zM2,48H4V50H2zM4,48H6V50H4zM6,48H8V50H6zM8,48H10V50H8zM10,48H12V50H10zM12,48H14V50H12zM14,48H16V50H14zM16,48H18V50H16zM20,48H22V50H20zM26,48H28V50H26zM30,48H32V50H30zM32,48H34V50H32zM34,48H36V50H34zM36,48H38V50H36zM38,48H40V50H38zM48,48H50V50H48zM50,48H52V50H50zM52,48H54V50H52zM54,48H56V50H54zM56,48H58V50H56zM58,48H60V50H58zM16,50H18V52H16zM18,50H20V52H18zM22,50H24V52H22zM28,50H30V52H28zM32,50H34V52H32zM34,50H36V52H34zM44,50H46V52H44zM48,50H50V52H48zM56,50H58V52H56zM58,50H60V52H58zM62,50H64V52H62zM64,50H66V52H64zM0,52H2V54H0zM2,52H4V54H2zM4,52H6V54H4zM6,52H8V54H6zM8,52H10V54H8zM10,52H12V54H10zM12,52H14V54H12zM16,52H18V54H16zM18,52H20V54H18zM22,52H24V54H22zM24,52H26V54H24zM26,52H28V54H26zM30,52H32V54H30zM32,52H34V54H32zM40,52H42V54H40zM42,52H44V54H42zM44,52H46V54H44zM48,52H50V54H48zM52,52H54V54H52zM56,52H58V54H56zM58,52H60V54H58zM60,52H62V54H60zM64,52H66V54H64zM0,54H2V56H0zM12,54H14V56H12zM16,54H18V56H16zM18,54H20V56H18zM22,54H24V56H22zM26,54H28V56H26zM28,54H30V56H28zM32,54H34V56H32zM36,54H38V56H36zM40,54H42V56H40zM44,54H46V56H44zM46,54H48V56H46zM48,54H50V56H48zM56,54H58V56H56zM58,54H60V56H58zM62,54H64V56H62zM64,54H66V56H64zM0,56H2V58H0zM4,56H6V58H4zM6,56H8V58H6zM8,56H10V58H8zM12,56H14V58H12zM18,56H20V58H18zM20,56H22V58H20zM22,56H24V58H22zM26,56H28V58H26zM28,56H30V58H28zM36,56H38V58H36zM40,56H42V58H40zM42,56H44V58H42zM44,56H46V58H44zM46,56H48V58H46zM48,56H50V58H48zM50,56H52V58H50zM52,56H54V58H52zM54,56H56V58H54zM56,56H58V58H56zM58,56H60V58H58zM0,58H2V60H0zM4,58H6V60H4zM6,58H8V60H6zM8,58H10V60H8zM12,58H14V60H12zM26,58H28V60H26zM28,58H30V60H28zM30,58H32V60H30zM38,58H40V60H38zM40,58H42V60H40zM42,58H44V60H42zM44,58H46V60H44zM48,58H50V60H48zM50,58H52V60H50zM54,58H56V60H54zM56,58H58V60H56zM58,58H60V60H58zM60,58H62V60H60zM62,58H64V60H62zM0,60H2V62H0zM4,60H6V62H4zM6,60H8V62H6zM8,60H10V62H8zM12,60H14V62H12zM16,60H18V62H16zM18,60H20V62H18zM26,60H28V62H26zM28,60H30V62H28zM34,60H36V62H34zM38,60H40V62H38zM44,60H46V62H44zM56,60H58V62H56zM62,60H64V62H62zM64,60H66V62H64zM0,62H2V64H0zM12,62H14V64H12zM18,62H20V64H18zM20,62H22V64H20zM22,62H24V64H22zM24,62H26V64H24zM26,62H28V64H26zM28,62H30V64H28zM30,62H32V64H30zM40,62H42V64H40zM44,62H46V64H44zM48,62H50V64H48zM0,64H2V66H0zM2,64H4V66H2zM4,64H6V66H4zM6,64H8V66H6zM8,64H10V66H8zM10,64H12V66H10zM12,64H14V66H12zM18,64H20V66H18zM24,64H26V66H24zM30,64H32V66H30zM32,64H34V66H32zM34,64H36V66H34zM36,64H38V66H36zM38,64H40V66H38zM40,64H42V66H40zM48,64H50V66H48zM50,64H52V66H50zM56,64H58V66H56zM58,64H60V66H58zM60,64H62V66H60zM64,64H66V66H64z" id="qr-path" fill="#000000" fill-opacity="1" fill-rule="nonzero" stroke="none" /></svg>