<?xml version="1.0" encoding="UTF-8"?>
<svg xmlns="http://www.w3.org/2000/svg" viewBox="0 0 2382 2605" fill="#1A1512">
<path d="M1228.50,2564.29 C1211.21,2563.71 1112.34,2557.96 1094.00,2556.46 C942.45,2544.11 766.91,2503.01 627.49,2447.25 C528.90,2407.81 433.49,2352.80 353.00,2288.97 C320.24,2262.98 300.84,2245.82 271.15,2216.55 C203.93,2150.28 156.95,2086.83 119.08,2011.16 C54.09,1881.31 29.65,1742.56 44.57,1588.00 C48.77,1544.42 53.74,1525.00 65.21,1507.42 C77.95,1487.87 98.46,1473.23 122.00,1466.85 C129.36,1464.86 132.78,1464.56 147.50,1464.61 C167.05,1464.67 174.60,1466.20 188.71,1472.94 C210.60,1483.41 225.06,1498.06 235.53,1520.38 C241.17,1532.40 243.95,1543.86 244.65,1558.00 C245.15,1567.82 244.59,1574.69 240.87,1605.00 C236.54,1640.30 236.52,1640.68 236.57,1672.50 C236.67,1735.01 245.11,1789.10 263.72,1846.45 C296.78,1948.36 356.13,2034.20 448.15,2113.21 C518.74,2173.82 603.00,2223.61 707.00,2266.19 C802.58,2305.32 938.50,2339.60 1059.00,2354.96 C1090.61,2358.99 1104.96,2360.33 1163.00,2364.68 C1208.34,2368.07 1215.91,2368.38 1253.00,2368.39 C1387.33,2368.41 1508.67,2348.97 1615.50,2310.32 C1786.19,2248.56 1921.59,2150.50 2024.73,2013.92 C2115.08,1894.28 2158.79,1745.98 2143.46,1611.07 C2124.90,1447.70 2035.41,1308.22 1883.70,1206.17 C1765.74,1126.82 1625.94,1074.05 1451.50,1043.03 C1393.52,1032.72 1338.42,1026.47 1271.00,1022.55 C1173.89,1016.91 1113.10,1017.24 996.50,1024.04 C921.31,1028.43 790.80,1044.95 700.50,1061.52 C625.90,1075.21 577.45,1086.29 471.50,1113.87 C411.18,1129.57 402.30,1131.11 384.00,1129.01 C366.25,1126.98 353.12,1122.04 338.38,1111.85 C313.14,1094.40 298.45,1069.45 294.85,1037.88 C292.63,1018.52 289.17,1030.80 362.99,796.05 C399.83,678.90 439.47,553.22 451.08,516.77 C462.68,480.32 480.47,423.99 490.59,391.58 C500.72,359.18 510.13,330.22 511.50,327.23 C522.97,302.18 548.33,282.67 577.50,276.48 C589.94,273.84 608.99,274.21 621.12,277.34 C639.54,282.09 654.49,290.65 667.08,303.67 C684.04,321.21 692.65,339.83 694.98,364.00 C697.06,385.55 702.48,366.44 615.50,644.42 C572.33,782.43 537.00,895.44 537.00,895.57 C537.00,895.70 539.36,895.20 542.25,894.45 C564.68,888.63 634.13,873.70 672.00,866.56 C823.69,837.96 993.63,822.44 1153.50,822.58 C1198.37,822.62 1268.75,824.69 1305.50,827.05 C1401.07,833.20 1524.62,853.55 1621.50,879.10 C1854.87,940.64 2046.09,1053.27 2172.90,1203.88 C2248.43,1293.59 2300.23,1398.41 2325.42,1512.50 C2343.44,1594.12 2346.79,1684.32 2334.91,1768.00 C2316.14,1900.33 2257.17,2034.25 2166.83,2149.76 C2097.02,2239.02 2005.36,2322.35 1908.18,2384.92 C1795.74,2457.32 1665.21,2510.64 1534.64,2537.54 C1444.21,2556.16 1317.27,2567.25 1228.50,2564.29 Z M1177.00,1784.92 C1118.64,1778.55 1061.63,1756.07 1026.97,1725.77 C1015.30,1715.57 1005.77,1704.89 1001.82,1697.61 C998.66,1691.80 998.50,1690.99 998.50,1681.00 C998.50,1672.14 998.84,1669.88 1000.66,1666.50 C1004.69,1659.05 1009.77,1654.22 1017.73,1650.29 C1024.55,1646.92 1026.14,1646.53 1032.92,1646.56 C1038.35,1646.59 1041.78,1647.18 1045.00,1648.64 C1047.47,1649.76 1058.05,1657.64 1068.50,1666.15 C1090.52,1684.09 1093.65,1686.31 1104.66,1691.83 C1138.04,1708.59 1186.85,1714.87 1219.37,1706.57 C1250.28,1698.69 1273.16,1677.01 1280.65,1648.50 C1282.08,1643.08 1282.49,1637.89 1282.47,1625.50 C1282.45,1611.71 1282.11,1608.33 1280.05,1601.00 C1275.27,1583.98 1269.69,1573.01 1258.41,1558.43 C1244.59,1540.56 1230.35,1529.91 1195.88,1511.69 C1164.13,1494.91 1156.77,1489.26 1151.32,1477.50 C1148.95,1472.40 1148.54,1470.23 1148.56,1462.99 C1148.58,1455.62 1149.00,1453.61 1151.64,1447.99 C1155.78,1439.18 1160.80,1434.53 1173.63,1427.61 C1179.61,1424.39 1191.26,1417.75 1199.53,1412.85 C1244.67,1386.09 1265.21,1361.20 1258.59,1341.28 C1253.84,1326.98 1238.42,1319.60 1210.50,1318.27 C1179.44,1316.79 1146.23,1327.61 1110.02,1351.01 C1095.42,1360.45 1089.98,1362.36 1079.15,1361.84 C1066.52,1361.23 1057.09,1355.21 1050.94,1343.83 C1047.75,1337.90 1047.53,1336.90 1047.52,1328.00 C1047.50,1319.82 1047.86,1317.72 1050.12,1312.91 C1053.62,1305.45 1057.71,1301.57 1072.26,1291.95 C1103.88,1271.03 1140.13,1258.22 1183.00,1252.82 C1198.71,1250.84 1241.40,1251.15 1256.32,1253.35 C1298.69,1259.59 1327.63,1274.53 1343.38,1298.31 C1354.11,1314.51 1357.53,1327.08 1356.74,1347.37 C1356.13,1363.08 1353.37,1373.59 1346.26,1387.35 C1333.86,1411.37 1312.82,1431.93 1278.75,1453.32 L1270.03,1458.79L1279.26,1464.02 C1292.32,1471.42 1311.70,1484.79 1324.00,1494.88 C1365.11,1528.63 1391.67,1569.94 1399.63,1612.50 C1402.41,1627.39 1402.16,1655.70 1399.11,1669.97 C1396.28,1683.20 1393.85,1690.48 1388.97,1700.26 C1377.62,1723.05 1357.26,1743.87 1332.19,1758.33 C1311.13,1770.48 1288.96,1777.61 1255.00,1783.16 C1245.00,1784.79 1236.79,1785.27 1214.00,1785.53 C1198.33,1785.70 1181.67,1785.43 1177.00,1784.92 Z M794.32,1674.62 C785.10,1671.61 776.66,1663.92 772.45,1654.69 C770.15,1649.65 769.84,1647.84 770.16,1641.19 C770.82,1627.57 776.45,1619.73 791.47,1611.55 C811.28,1600.75 831.01,1585.92 847.47,1569.47 C867.23,1549.70 882.30,1528.40 895.75,1501.21 C904.95,1482.62 906.72,1480.42 915.88,1476.21 C920.15,1474.24 922.87,1473.74 929.14,1473.74 C935.96,1473.74 937.88,1474.16 943.43,1476.89 C950.80,1480.52 955.26,1485.15 958.76,1492.80 C960.96,1497.59 961.18,1499.19 960.80,1507.34 C960.39,1515.86 960.01,1517.25 955.28,1527.19 C928.23,1584.07 884.86,1631.96 832.83,1662.37 C811.85,1674.64 803.01,1677.45 794.32,1674.62 Z M1610.91,1609.09 C1561.43,1598.41 1514.51,1574.83 1476.86,1541.71 C1465.28,1531.53 1462.00,1525.31 1462.00,1513.50 C1462.00,1506.39 1462.40,1504.52 1465.04,1499.24 C1470.39,1488.53 1479.75,1482.04 1491.00,1481.24 C1502.37,1480.43 1508.18,1483.15 1525.60,1497.41 C1539.89,1509.12 1555.74,1519.35 1571.50,1527.05 C1587.85,1535.03 1599.23,1539.03 1616.95,1543.03 C1632.68,1546.57 1639.94,1549.89 1646.68,1556.58 C1653.16,1563.02 1655.50,1569.83 1654.76,1580.14 C1653.87,1592.51 1646.94,1602.43 1635.62,1607.54 C1628.29,1610.85 1621.13,1611.30 1610.91,1609.09 Z M961.78,1252.51 C943.21,1247.79 929.69,1234.51 925.54,1216.91 C923.60,1208.67 923.61,1193.31 925.56,1185.00 C929.01,1170.29 940.16,1152.88 952.86,1142.36 C961.29,1135.38 975.32,1128.41 985.00,1126.39 C1000.29,1123.19 1010.82,1126.22 1022.58,1137.22 C1030.10,1144.26 1034.55,1152.42 1036.16,1162.15 C1037.63,1171.04 1035.69,1180.20 1028.96,1196.16 C1026.09,1202.95 1022.47,1212.55 1020.91,1217.50 C1015.40,1235.01 1005.62,1246.09 991.23,1251.12 C983.64,1253.78 969.40,1254.45 961.78,1252.51 Z M1313.00,1215.86 C1305.96,1214.69 1296.77,1210.35 1290.86,1205.39 C1288.31,1203.25 1282.18,1198.07 1277.24,1193.88 C1272.29,1189.70 1263.45,1183.01 1257.59,1179.02 C1246.20,1171.26 1241.38,1166.26 1237.77,1158.42 C1235.87,1154.29 1235.50,1151.80 1235.50,1142.98 C1235.50,1133.11 1235.70,1132.04 1238.78,1125.79 C1244.32,1114.54 1256.28,1105.75 1269.94,1102.90 C1278.13,1101.20 1299.67,1102.33 1308.82,1104.95 C1323.54,1109.16 1338.22,1118.14 1348.66,1129.30 C1358.76,1140.09 1364.18,1151.74 1365.52,1165.50 C1368.46,1195.70 1342.38,1220.71 1313.00,1215.86 Z M1790.50,416.45 C1661.25,399.58 1556.94,375.88 1446.75,338.37 C1377.42,314.77 1321.90,291.38 1227.89,246.16 C1184.73,225.41 1162.13,196.28 1157.91,155.98 C1154.58,124.17 1165.06,93.80 1186.92,71.92 C1207.20,51.63 1234.56,40.00 1262.00,40.00 C1272.25,40.00 1285.44,42.04 1292.39,44.70 C1294.65,45.57 1320.18,57.45 1349.13,71.10 C1409.41,99.53 1421.49,104.97 1450.39,116.69 C1558.41,160.52 1672.24,189.57 1794.50,204.51 C1826.05,208.37 1839.48,211.99 1858.25,221.68 C1898.60,242.52 1919.49,281.55 1914.09,326.00 C1910.95,351.82 1900.44,372.78 1881.72,390.59 C1868.67,403.01 1854.76,410.88 1837.50,415.59 C1829.19,417.86 1804.70,418.31 1790.50,416.45 Z"/>
</svg>
