<?xml version="1.0" encoding="UTF-8"?>
<svg xmlns="http://www.w3.org/2000/svg" viewBox="0 0 2303 2526" fill="#1A1512">
<path d="M0.15,2089.75 C0.23,1849.81 0.66,1661.15 1.09,1670.50 C8.12,1822.67 57.37,1961.69 146.85,2081.92 C182.81,2130.24 233.55,2183.56 285.00,2227.10 C373.68,2302.14 477.20,2364.13 587.49,2408.25 C726.91,2464.01 902.45,2505.11 1054.00,2517.46 C1072.34,2518.96 1171.21,2524.71 1188.50,2525.29 C1193.45,2525.45 928.06,2525.68 598.75,2525.79 L0.00,2526.00L0.15,2089.75 Z M1260.50,2524.89 C1361.14,2521.25 1455.74,2509.04 1535.14,2489.45 C1663.74,2457.71 1794.68,2398.52 1900.18,2324.43 C2052.28,2217.60 2170.05,2079.14 2236.52,1929.00 C2292.96,1801.50 2312.78,1672.23 2296.48,1538.00 C2285.45,1447.27 2254.86,1354.85 2209.24,1274.50 C2149.06,1168.49 2059.82,1075.47 1945.00,999.07 C1804.59,905.65 1637.59,843.31 1436.00,809.07 C1346.89,793.93 1298.07,788.90 1205.50,785.32 C1019.54,778.13 813.84,793.28 632.00,827.56 C594.13,834.70 524.68,849.63 502.25,855.45 C499.36,856.20 497.00,856.70 497.00,856.57 C497.00,856.44 532.33,743.43 575.50,605.42 C647.67,374.77 654.08,353.70 654.95,344.51 C656.63,326.75 653.53,307.51 646.55,292.41 C636.93,271.59 619.35,254.04 598.43,244.37 C575.14,233.61 546.19,232.74 522.00,242.07 C499.87,250.61 480.69,268.13 471.50,288.23 C470.13,291.22 460.72,320.18 450.59,352.58 C440.47,384.99 422.68,441.32 411.08,477.77 C399.47,514.22 359.82,639.93 322.97,757.12 C248.99,992.40 252.56,979.69 254.86,999.14 C258.57,1030.65 273.22,1055.46 298.38,1072.85 C321.89,1089.10 346.06,1093.87 377.00,1088.36 C381.68,1087.52 406.20,1081.45 431.50,1074.87 C537.45,1047.29 585.90,1036.21 660.50,1022.52 C750.80,1005.95 881.31,989.43 956.50,985.04 C1073.10,978.24 1133.89,977.91 1231.00,983.55 C1327.00,989.13 1407.08,1000.55 1495.00,1021.19 C1727.39,1075.75 1906.10,1181.29 2008.48,1324.45 C2089.35,1437.52 2121.71,1575.12 2099.40,1711.00 C2084.07,1804.41 2044.19,1896.18 1984.73,1974.92 C1881.59,2111.50 1746.19,2209.56 1575.50,2271.32 C1468.67,2309.97 1347.33,2329.41 1213.00,2329.39 C1175.91,2329.38 1168.34,2329.07 1123.00,2325.68 C1064.96,2321.33 1050.61,2319.99 1019.00,2315.96 C913.67,2302.53 796.07,2274.67 704.50,2241.47 C602.44,2204.45 504.97,2151.87 433.78,2095.41 C327.35,2011.00 259.64,1918.19 223.72,1807.45 C205.11,1750.10 196.67,1696.01 196.57,1633.50 C196.52,1601.68 196.54,1601.30 200.87,1566.00 C204.59,1535.69 205.15,1528.82 204.65,1519.00 C203.95,1504.86 201.17,1493.40 195.53,1481.38 C185.06,1459.06 170.60,1444.41 148.71,1433.94 C134.60,1427.20 127.05,1425.67 107.50,1425.61 C92.78,1425.56 89.36,1425.86 82.00,1427.85 C50.95,1436.26 26.52,1458.10 15.55,1487.27 C9.19,1504.18 3.76,1544.66 1.11,1595.00 C0.66,1603.53 0.23,1248.14 0.15,805.25 L0.00,0.00L1151.50,0.00 L2303.00,0.00L2303.00,1263.00 L2303.00,2526.00L1770.75,2525.85 C1478.01,2525.76 1248.40,2525.33 1260.50,2524.89 Z M1215.00,1744.16 C1248.96,1738.61 1271.13,1731.48 1292.19,1719.33 C1317.26,1704.87 1337.62,1684.05 1348.97,1661.26 C1353.85,1651.48 1356.28,1644.20 1359.11,1630.97 C1362.16,1616.70 1362.41,1588.39 1359.63,1573.50 C1351.67,1530.94 1325.11,1489.63 1284.00,1455.88 C1271.70,1445.79 1252.32,1432.42 1239.26,1425.02 L1230.03,1419.79L1238.75,1414.32 C1272.82,1392.93 1293.86,1372.37 1306.26,1348.35 C1313.37,1334.59 1316.13,1324.08 1316.74,1308.37 C1317.53,1288.08 1314.11,1275.51 1303.38,1259.31 C1287.63,1235.53 1258.69,1220.59 1216.32,1214.35 C1201.40,1212.15 1158.71,1211.84 1143.00,1213.82 C1100.13,1219.22 1063.88,1232.03 1032.26,1252.95 C1017.71,1262.57 1013.62,1266.45 1010.12,1273.91 C1007.86,1278.72 1007.50,1280.82 1007.52,1289.00 C1007.53,1297.90 1007.75,1298.90 1010.94,1304.83 C1017.09,1316.21 1026.52,1322.23 1039.15,1322.84 C1049.98,1323.36 1055.42,1321.45 1070.02,1312.01 C1106.23,1288.61 1139.44,1277.79 1170.50,1279.27 C1198.42,1280.60 1213.84,1287.98 1218.59,1302.28 C1225.21,1322.20 1204.67,1347.09 1159.53,1373.85 C1151.26,1378.75 1139.61,1385.39 1133.63,1388.61 C1120.80,1395.53 1115.78,1400.18 1111.64,1408.99 C1109.00,1414.61 1108.58,1416.62 1108.56,1423.99 C1108.54,1431.23 1108.95,1433.40 1111.32,1438.50 C1116.77,1450.26 1124.13,1455.91 1155.88,1472.69 C1190.35,1490.91 1204.59,1501.56 1218.41,1519.43 C1229.69,1534.01 1235.27,1544.98 1240.05,1562.00 C1242.11,1569.33 1242.45,1572.71 1242.47,1586.50 C1242.49,1598.89 1242.08,1604.08 1240.65,1609.50 C1233.16,1638.01 1210.28,1659.69 1179.37,1667.57 C1146.85,1675.87 1098.04,1669.59 1064.66,1652.83 C1053.65,1647.31 1050.52,1645.09 1028.50,1627.15 C1018.05,1618.64 1007.48,1610.76 1005.00,1609.64 C1001.78,1608.18 998.35,1607.59 992.92,1607.56 C986.14,1607.53 984.55,1607.92 977.73,1611.29 C969.77,1615.22 964.69,1620.05 960.66,1627.50 C958.84,1630.88 958.50,1633.14 958.50,1642.00 C958.50,1651.99 958.66,1652.80 961.82,1658.61 C965.77,1665.89 975.30,1676.57 986.97,1686.77 C1021.63,1717.07 1078.64,1739.55 1137.00,1745.92 C1141.67,1746.43 1158.33,1746.70 1174.00,1746.53 C1196.79,1746.27 1205.00,1745.79 1215.00,1744.16 Z M775.76,1632.54 C818.89,1612.05 863.84,1572.03 892.36,1528.72 C901.38,1515.00 908.57,1502.29 915.28,1488.19 C920.01,1478.25 920.39,1476.86 920.80,1468.34 C921.18,1460.19 920.96,1458.59 918.76,1453.80 C915.26,1446.15 910.80,1441.52 903.43,1437.89 C891.85,1432.19 877.24,1433.98 867.40,1442.30 C865.36,1444.03 861.38,1450.84 855.75,1462.21 C842.30,1489.40 827.23,1510.70 807.47,1530.47 C791.01,1546.92 771.28,1561.75 751.47,1572.55 C736.45,1580.73 730.82,1588.57 730.16,1602.19 C729.84,1608.84 730.15,1610.65 732.45,1615.69 C735.25,1621.82 741.27,1628.74 746.82,1632.19 C755.97,1637.87 764.31,1637.98 775.76,1632.54 Z M1595.62,1568.54 C1606.94,1563.43 1613.87,1553.51 1614.76,1541.14 C1615.50,1530.83 1613.16,1524.02 1606.68,1517.58 C1599.94,1510.89 1592.68,1507.57 1576.95,1504.03 C1559.23,1500.03 1547.85,1496.03 1531.50,1488.05 C1515.74,1480.35 1499.89,1470.12 1485.60,1458.41 C1468.18,1444.15 1462.37,1441.43 1451.00,1442.24 C1439.75,1443.04 1430.39,1449.53 1425.04,1460.24 C1422.40,1465.52 1422.00,1467.39 1422.00,1474.50 C1422.00,1486.31 1425.28,1492.53 1436.86,1502.71 C1469.03,1531.01 1508.94,1552.93 1549.41,1564.53 C1577.17,1572.49 1585.30,1573.20 1595.62,1568.54 Z M951.23,1212.12 C965.62,1207.09 975.40,1196.01 980.91,1178.50 C982.47,1173.55 986.09,1163.95 988.96,1157.16 C998.13,1135.42 998.86,1124.29 992.03,1110.40 C988.32,1102.88 978.64,1093.44 970.59,1089.50 C951.30,1080.06 919.22,1092.24 900.56,1116.10 C893.84,1124.68 887.68,1136.97 885.56,1146.00 C883.61,1154.31 883.60,1169.67 885.54,1177.91 C889.69,1195.51 903.21,1208.79 921.78,1213.51 C929.40,1215.45 943.64,1214.78 951.23,1212.12 Z M1293.55,1175.45 C1296.32,1174.69 1301.29,1172.32 1304.58,1170.19 C1323.05,1158.26 1330.28,1135.79 1322.84,1113.50 C1315.74,1092.25 1294.09,1073.18 1268.82,1065.95 C1259.67,1063.33 1238.13,1062.20 1229.94,1063.90 C1216.28,1066.75 1204.32,1075.54 1198.78,1086.79 C1195.70,1093.04 1195.50,1094.11 1195.50,1103.98 C1195.50,1112.80 1195.87,1115.29 1197.77,1119.42 C1201.38,1127.26 1206.20,1132.26 1217.59,1140.02 C1223.45,1144.01 1232.29,1150.70 1237.24,1154.88 C1242.18,1159.07 1248.31,1164.25 1250.86,1166.39 C1262.97,1176.56 1277.93,1179.73 1293.55,1175.45 Z M1797.50,376.59 C1827.29,368.45 1852.45,347.07 1865.40,318.88 C1878.27,290.87 1877.90,254.49 1864.49,227.98 C1854.90,209.02 1838.91,193.36 1818.25,182.68 C1799.48,172.99 1786.05,169.37 1754.50,165.51 C1632.24,150.57 1518.41,121.52 1410.39,77.69 C1381.49,65.97 1369.41,60.53 1309.13,32.10 C1280.18,18.45 1254.65,6.57 1252.39,5.70 C1235.66,-0.70 1209.36,-0.43 1189.39,6.37 C1168.28,13.55 1146.63,29.70 1135.05,46.88 C1111.27,82.16 1111.39,130.08 1135.33,165.50 C1141.35,174.41 1155.25,187.76 1165.89,194.84 C1175.52,201.26 1180.30,203.67 1228.50,226.47 C1318.44,269.01 1398.35,299.24 1489.00,325.00 C1572.26,348.67 1651.03,364.47 1750.50,377.45 C1764.70,379.31 1789.19,378.86 1797.50,376.59 Z" fill-rule="evenodd"/>
</svg>
