<?xml version="1.0" encoding="UTF-8"?>
<svg xmlns="http://www.w3.org/2000/svg" viewBox="265 220 1505 230" preserveAspectRatio="xMidYMid meet">
  <defs>
    <style>
      .cls-1 {
        fill: #FFF8E7;
      }

      .cls-2 {
        fill: #FFF8E7;
      }
    </style>
  </defs>
  <g>
    <path class="cls-1" d="M277.57,385.68v-1.65l2.7-4.2-1.65-.6-2.1-30.75,3.3-1.05,4.65.45,6.9-1.05,1.05,2.25-.45,33.3-1.65,3.9-3.15,1.65-9.6-2.25ZM286.72,429.48l-2.25-4.95c5.7-10.35,9.6-21.45,12-33.15,2.25-11.7,3.45-23.85,3.45-36.45.6-13.95,0-28.05-1.65-42,2.85-2.85,6.45-3.75,11.1-2.7l2.7.45,2.55-.45,2.25,1.65c.3,6.45.45,12.9.45,19.35l-.45,1.5,2.55.6c2.25-2.1,4.65-3.15,7.5-3.15,2.55,3.15,4.2,6.75,5.25,10.8-6,3.3-11.25,7.65-15.9,12.9.45,7.5-.15,14.85-1.5,21.9-1.5,6.9-2.7,14.1-3.75,21.3l.6,1.65-2.25.45c-1.05,5.7-3,11.1-5.85,16.2-2.85,4.95-5.85,10.05-9,15.15l-3.15,1.65-4.65-2.7ZM322.72,421.23c-3.3-3.9-6-7.95-8.55-12.3-1.35-.75-1.95-2.25-1.5-4.35l1.5-3.3c3.9-1.35,7.5-3.6,10.65-6.45,2.7,6.15,5.85,12,9,17.85l-9,8.1-2.1.45ZM381.07,385.23c-2.25-3-3.3-6.3-3.3-10.2-7.5,0-15.15-.3-22.8-.6l-2.7,1.05v1.5l1.2,4.5c-4.35,3.6-9.3,4.95-15,4.2-.6-4.65-1.8-9-3.6-12.9l-10.05-2.85-1.05-6.75,1.65-3.45,1.5-.45c2.1,1.05,4.35,1.5,6.9,1.05,1.35-3.9,1.95-8.25,1.5-12.9l1.65-.6,16.5,1.65.45,7.65-.45,4.2,24.9,1.65,4.2-11.85c2.85-.75,5.55-1.2,8.4-1.65l8.1,2.25v2.1l-1.65,6.45,13.2,1.65.6,4.8c0,3.6-1.2,6.9-3.75,9.75l-12.75-.45c-1.05,4.2-2.4,8.4-4.2,12.3l-4.2.6-5.25-2.7ZM332.17,367.99l-3.75-.6v1.65l3.75.6v-1.65ZM400.57,403.98c-10.8.15-21.6,0-32.25-.45-6.45-.45-12.9-.75-19.65-1.05-6.75-.45-12.6-2.1-17.4-5.4l1.35-8.55h12.75c7.2,1.35,14.55,2.1,22.35,2.55s15.6.75,23.25,1.05c5.25.15,10.35.15,15.45,0l.45,3.3c-1.35,3.6-2.55,7.05-3.6,10.35l-2.7-1.8ZM363.37,352.24c-1.35-4.2-1.8-9-1.5-13.95l.6-1.65c-8.1-1.05-16.2-2.4-24.45-3.9l-1.5.6-2.25-1.05v-1.5l.6-1.8c-1.05-1.35-1.35-3-1.05-4.8l2.1-3.75,2.55-.6c7.5,1.5,15.15,2.25,22.95,2.25l1.05-2.25-.6-3.15,2.55-14.1,3.3-.6c4.5,1.5,9.15,2.55,13.8,3.3l.45,5.4c-1.05,3.15-1.8,6.6-2.1,10.2,4.5,1.5,9.45,2.1,14.85,1.95,5.25-.15,10.2.45,14.85,1.95l.6,1.5-2.7,8.7-21.15,1.65-1.65-.6-4.2.6-1.65-.6c-1.8,5.4-3.3,11.1-4.65,16.8l-8.55.45-2.25-1.05ZM334.87,436.38l-.6-2.1c2.1-8.25,4.5-16.65,6.9-24.9l-.45-2.1,2.7-.45c4.8,1.65,9.75,3.15,14.7,4.2v1.65l-1.5,3.75.45,2.25c-1.65,7.2-4.65,13.8-9,19.8l-3.15,2.25-10.05-4.35ZM393.22,440.73c-7.05.45-12.9-2.1-17.7-7.65-2.4-4.2-3.75-9.15-4.05-14.4l1.5-9.3,11.1-1.05,4.8,1.05.6,4.8-.6,2.25c0,3,1.2,5.4,3.75,7.65,4.2,1.8,8.7,3,13.35,3.75l1.5-.6,1.05,1.65-3.15,10.8-3.75,1.05-5.85-.6-2.55.6ZM393.82,358.69h-1.65v1.65h1.65v-1.65ZM394.27,356.59h-1.65v1.5h1.65v-1.5ZM397.87,369.93l-.45,1.65,2.1-.45-1.65-1.2Z"/>
    <path class="cls-1" d="M492.82,390.18c-3.15-3.9-5.1-8.4-5.85-13.5-19.8.15-39.75.9-59.7,2.25-2.4,0-4.2-.9-5.25-2.7l-.6-1.5c-1.35-.45-1.8-1.5-1.5-3.3l1.05-2.1-2.25-7.05c9.3.45,18.45.45,27.6,0l2.7-1.05,7.2.6,1.65-.6,6.45.6c4.5-1.95,9.45-2.55,14.85-2.25l1.95.6c1.2-1.8,1.5-3.9,1.05-6l-2.55-10.65-5.25-.6c-5.7,1.05-11.7,1.65-17.85,1.8l-18.15.9-11.1-3.15-1.05-5.4.6-1.65-.6-4.8,1.05-2.25c11.85,1.05,23.4.6,34.8-1.65,1.5,1.2,3.3,1.5,5.4,1.2l13.2-1.2v-5.85l-.45-5.4,1.5-2.55,4.8-.6,9.45,2.1.45,2.7-.45,2.55,2.7,3.3h21l3.75-.45,2.55,2.7.6,10.2-11.1,2.25-3.6-.6-1.65-1.05-.45,1.65c-4.35-.45-8.25.45-11.7,2.55l-.45,3.9,2.55,11.7,5.4.6,11.55-2.25,1.5.6,6.3-1.65,3.3,1.05,2.55,15.15-2.1,2.55-23.7,4.35-.45,2.25c2.4,4.95,5.4,9.9,8.85,14.55-2.4,2.4-5.4,4.05-8.85,4.8-4.35-1.8-8.25-4.35-11.7-7.65ZM453.97,432.48c-5.55-2.25-10.65-5.25-15.6-8.85l-4.2-7.05-4.2-4.2.9-2.25c-1.65-1.8-2.55-4.05-2.55-7.05l11.7-5.85c2.85,3.6,5.25,7.2,7.35,10.65,5.25,4.05,10.95,6.9,17.1,8.7,6.15,1.8,12.6,2.85,19.35,3.15l4.65-.45,5.85.45,1.65-.45c2.1,3.15,3.3,6.75,3.3,10.8-1.2,1.5-2.55,2.25-4.35,2.55l-1.65,3.3c-6.9,1.5-14.4,1.95-22.2,1.65-6-1.2-11.7-2.85-17.1-5.1Z"/>
    <path class="cls-1" d="M621.82,432.18c-6.15,0-11.7-1.5-16.8-4.2-5.1-2.7-9.75-6.15-13.95-10.5-3.6-3.3-5.25-7.5-4.95-12.45l.6-4.95-.6-1.65c1.2-8.25,4.35-15.9,9.6-22.65-6.9-.45-13.8-.6-20.7-.6l-4.65,1.5c-9.15-.6-17.85-2.25-26.1-4.8l-.45-3.15,1.05-7.05h1.65l.6-4.8c3.9-.3,7.65-.6,11.55-.6,4.2,1.05,8.55,1.8,12.75,2.1,7.05-1.35,13.2-4.8,18.6-10.2l4.2-5.4c3.15-2.55,6.15-5.7,9-9.3l2.55-3.15v-1.8c-7.05-1.8-14.4-2.4-22.2-2.1l-10.05,1.05c-4.2.45-8.1-.6-11.7-3.15l-.9-2.25-2.7-2.25,2.1-13.95c4.95-.3,9.9-.6,14.7-.6,10.35,1.5,20.4,3,30.3,4.95,9.9,1.8,19.65,3.9,29.25,6.45l3,3.75.6,5.55c-4.5,4.95-9.15,10.2-13.5,15.45-4.5,5.1-9.3,10.05-14.55,14.85l-1.65.6-.45,1.5,2.7.45,3.15-1.05c9,.9,18,1.2,27,1.05,7.35-.3,14.55-1.2,21.6-2.55l4.35.9,3.75,12.6c-2.1,1.35-4.65,2.55-7.5,3.3l-3.6-.6c-8.25,1.8-16.8,2.7-25.8,3-9,.15-16.8,3.3-23.55,9.45-4.2,5.4-6.3,11.7-6.3,18.9l2.55,5.4c5.25,3,10.95,4.65,16.95,4.95,6.45-1.8,12.9-3.45,19.65-4.95,2.55,4.65,4.2,9.75,5.4,15.3-7.95,2.85-15.9,5.4-24,7.65h-2.55Z"/>
    <path class="cls-1" d="M688.72,411.18l-2.1-4.8c-2.85-3.6-4.35-7.5-4.8-11.7l1.2-1.2c-1.5-7.2-2.25-14.7-2.25-22.65,1.5-7.8,2.7-15.9,3.75-23.85,1.05-8.1,2.55-16.05,4.8-24l5.25-2.1c4.65.75,8.85,2.55,12.75,5.25l.45,2.25-1.05,4.35.6,3.3c-1.8,6.45-3.75,12.9-5.85,19.35-2.1,6.45-3.6,13.2-4.2,20.4-.3,4.5,0,9,.9,13.35l-.45,2.25,2.1,2.7h1.65l11.55-3.3c.45,1.5,1.5,1.95,3.15,1.65l2.7-.6c1.05,2.55,1.35,5.25,1.05,8.1l-.6,2.7.6,1.65c-3.9,2.1-7.95,4.05-11.85,5.85-4.05,1.8-8.25,3.3-12.45,4.8-2.1-1.65-4.35-3-6.9-3.75ZM736.72,425.73l-1.95.45c-4.95-6.75-8.85-13.95-11.7-21.45,0-6.75,2.7-12.45,7.95-17.1,4.2-3.3,9-5.1,14.25-5.4h19.65v-2.7l-1.2-3.3,1.2-12.75-2.25-3.3c-5.7,0-10.95.75-15.75,2.1l-2.7-1.05-10.5.6-10.2-2.25-.45-12.3c3.6-3.15,7.95-4.35,13.2-3.15l11.55,1.5,17.1-2.1.45-5.85c-1.2-3.6-1.8-7.65-2.1-11.85l1.05-10.95h1.95c5.4,0,9.9.75,13.8,2.25-.45,9.3-.3,18.6.6,27.9,7.8,1.5,15.45,1.8,23.1,1.05l4.35,9.3-4.35,4.2-7.2,1.05-3.3-1.05c-3.15,1.5-6.6,1.95-10.5,1.65l-1.65-.6c-.9,7.95-1.65,16.05-2.1,24.3l1.65,4.8c5.55,2.55,10.8,5.7,15.6,9.6,4.8,4.05,9.6,7.95,14.4,11.85l.6,2.25-9.45,6.3-5.25-2.55-6.9-6c-3.6-2.1-7.2-3.6-11.1-4.2l-.45,2.55.45,1.65-12.3,12.45c-6.6,2.4-13.65,4.35-21,5.85-2.4-2.1-5.25-3.45-8.55-3.75ZM761.02,404.28l1.2-4.35-2.25-3.3-7.2-1.05-7.95,2.25c-2.1,3-3.9,6.3-5.25,9.6l4.65,4.35,5.85.6,2.7-1.65,8.25-6.45ZM785.92,330.64c-1.35-4.35-2.4-8.85-2.85-13.5-.45-4.65-.75-9.6-.75-14.55l3-.6,2.7.6,3.15-1.05c1.5,7.65,2.25,15.45,2.7,23.7l-3.6,2.7-4.35,2.7ZM800.17,324.19c-1.05-4.65-1.35-9.75-1.05-15.15l.6-1.65-.6-5.85,7.95-2.1c1.8,3.15,2.7,6.75,2.7,10.65l-.6,1.65c.3,3.15.9,6.45,1.5,9.6l-1.5,1.2-.45,2.1-5.85,1.2-2.7-1.65Z"/>
    <path class="cls-2" d="M814.27,422.73l-2.7-1.05-.45-1.8,1.5-3.15c3.15-1.5,6.3-3.45,9-6l12.6-16.2,2.1-.6,1.05-2.25c4.2-3.6,7.35-7.35,9.45-11.4,2.25-3.9,4.65-7.65,7.35-11.25l1.05-2.25,1.65-.6c2.4-4.65,5.1-9.45,8.1-14.1,3-4.8,5.7-9.45,8.25-14.1l-15.3-.6c-5.25,0-10.35.45-15.15,1.35-4.95.9-10.05,1.8-15.3,2.4l-2.1-.45-9.6,1.65-1.5-2.85c1.35-3.15,2.1-6.75,2.1-10.8l-.6-2.25,1.05-2.1,15.3-3.3,3.15.6,1.65-.6,1.5.6,21.6-1.65,4.35,1.65c10.65-1.5,21.3-1.5,31.95,0l2.1,2.7-1.65,4.95.6,2.25c-2.4,8.25-5.7,16.05-9.9,23.25-3.3,2.85-5.85,6.15-7.95,9.75l-3.6,7.65c-3.9,3.6-7.35,7.8-10.35,12.45-3,4.65-6.45,8.85-10.35,12.6l-7.8,13.05-19.95,21.75-3.3.45-9.9-9.75ZM914.77,423.78l-1.5.6-2.7-1.65c-7.65-3.15-15-7.35-22.05-12.45-4.5-5.4-9-11.1-13.2-16.8l1.65-4.95,7.8-6.15.45-2.55h2.7c3.15,6.6,7.95,12,14.25,16.2,4.5,3.6,9.6,6,15,7.2,5.4,1.05,10.5,2.85,15.6,5.25l.45,6-6.3,10.95c-1.8,1.8-3.9,2.55-6.3,2.1l-5.85-3.75Z"/>
    <path class="cls-2" d="M945.97,391.38l-.9-3.75c5.25-14.4,11.55-28.35,18.9-42,7.2-13.5,13.05-27.75,17.7-42.45l4.2-.6,16.35,9.9v3.15c-3.9,5.85-6.9,11.85-8.85,18.3-3.6,3.3-6.6,7.2-9.15,11.4-4.95,7.65-9.3,15.6-13.2,23.7-3.9,8.1-8.1,15.9-12.75,23.55l-2.55,1.65-9.75-2.85ZM990.52,440.73c-4.2-1.8-8.55-3.45-13.2-4.95l-.9-3.3,10.5-11.85c2.4-4.2,5.55-8.25,9.15-12.15,3.75-3.75,6.75-7.8,8.85-12.15-4.2-2.55-8.4-5.4-12.45-8.7-4.05-3.3-8.4-6-13.05-8.1-1.8-1.5-2.7-3.3-2.7-5.4l2.25-6.45,1.65-.6.45-3.3c2.1-1.05,4.35-1.5,6.9-1.5l2.55,1.5,1.2,1.65c4.2,2.25,8.4,4.5,12.45,7.05,4.05,2.55,8.1,4.95,12.45,7.05,3.6-4.65,6.75-9.6,9.6-14.85,2.7-5.25,5.4-10.65,7.8-16.05-4.5-2.1-9.3-3.75-14.25-4.8l-7.35.9c-3.9-1.35-7.8-2.55-11.7-3.75l-1.05-2.55,3.15-2.7c0-4.05,1.2-7.5,3.75-10.35l3.6-2.7c8.55,1.5,16.95,3.15,25.2,5.1,8.25,1.95,15.6,6.3,22.05,12.75l2.1,6.45c-9.6,15.15-19.5,30-29.7,44.4-10.2,14.4-20.85,28.95-31.8,43.35l-7.5,6Z"/>
    <path class="cls-2" d="M1081.57,422.13c-1.5-5.1-2.4-10.5-2.7-16.2,4.65-1.5,9.3-2.85,14.25-3.9l6.9.45c13.95-2.1,27.6-5.7,40.65-10.5,12.9-4.95,25.95-9.15,39-12.9,1.8,4.35,2.55,9.3,2.55,14.85-14.7,7.95-30.3,14.55-46.65,19.5-16.35,5.1-33,9-49.8,11.55l-4.2-2.85ZM1131.67,351.79c-7.8-3.9-15.75-7.65-23.85-11.1s-15.9-7.35-23.7-11.7l-1.65-4.35c3.15-4.05,5.55-8.25,7.35-12.6l5.4-1.05c7.05,5.1,14.4,9.45,21.9,13.05,7.65,3.6,15,7.65,22.35,12l.6,2.7c-2.1,3.75-3.9,7.5-5.25,11.55l-3.15,1.5Z"/>
    <path class="cls-2" d="M1226.02,426.03l1.65-6c.45-16.05.15-32.25-1.05-48.75.75-10.35,1.2-21,1.5-31.95.45-10.8,1.35-21.45,2.7-31.95l3.75-2.1c2.1,1.8,4.8,2.55,8.1,2.1l1.95-.9,4.35,1.5v7.05c-1.8,9-2.7,18.3-2.7,27.9s-.9,18.6-2.7,27.3l.45,1.65-.45,4.35c1.2,1.8,1.5,3.9,1.05,6.45l-.6,19.05.6,1.65-.6,2.7.6,8.1c-1.35,3.9-1.95,8.1-1.95,12.45l.45,3.3c-5.1,1.5-9.9,3-14.4,4.8-1.35-2.55-2.25-5.4-2.7-8.7ZM1300.87,390.93c-7.05-1.5-13.95-3.3-20.7-5.4l-1.5.45-14.4-4.2-1.65-2.25-7.35-2.85-2.1,1.2-1.05-2.7c2.85-5.85,4.95-11.7,6.3-18l1.65-.3c9.15,2.7,18,6,26.7,9.6,8.7,3.6,17.1,8.1,25.2,13.65l.45,5.4-1.5,2.7-2.7,5.4-4.65.6-2.7-3.3ZM1279.72,341.59c-1.8-4.35-3-8.85-3.75-13.5s-1.8-9.15-3.15-13.65l1.05-4.2,3.15-.6c3.6,0,6.3.9,8.55,2.85.9,7.05,2.55,13.95,4.65,20.4,0,2.25-.9,4.05-2.7,5.55l-7.8,3.15ZM1298.77,333.49c-.45-4.65-1.2-9.3-2.55-13.95-1.2-4.8-2.1-9.45-2.85-14.25,4.35.15,8.55-.15,12.75-1.05,1.2,4.65,1.95,9.3,2.7,14.1.75,4.65,1.5,9.3,2.7,13.95l-1.65.6-2.1,1.65-1.65-.6-4.8,1.8-2.55-2.25Z"/>
  </g>
  <g>
    <path class="cls-1" d="M1348.66,389.76l1.68-5.04h-2.64c5.76-15.36,11.04-30.72,15.6-46.32,4.8-15.36,8.88-30.96,12.48-47.04l5.76,1.68,18.72,6v3.36c-3.36,14.88-6.96,29.52-10.56,44.16-3.84,14.64-8.16,29.04-12.96,43.2l-4.32,1.92c0,2.16-1.2,3.6-3.6,4.32-6.72-2.4-13.44-4.56-20.16-6.24ZM1442.51,287.52c-19.2-7.68-38.16-16.32-56.64-26.16-2.16-3.36-3.36-7.44-3.36-12.24l4.32-5.76,7.44-2.64c20.16,7.92,40.56,15.12,60.96,21.6,20.16,6.24,40.8,12.24,61.68,17.76l2.4,6.96c-.96,6.72-3.6,12.72-7.44,18-2.88,1.68-6.24,2.16-10.32,1.68-20.16-5.04-39.84-11.52-59.04-19.2ZM1436.75,432.72l2.4-.96,1.68-4.08c11.76-7.44,23.76-13.44,36.48-18.24,8.4-7.92,14.88-16.32,19.44-25.44l.72-5.28-6-13.68c-8.4-3.84-17.76-6.24-27.84-6.96l-13.68,1.68-4.08-.72c-10.8.48-20.64,2.4-29.52,6l-4.32-.72-9.36,1.68-3.36-.96-3.12.96c-2.88-2.4-3.84-5.28-2.64-8.64l.72-2.64-.72-5.28,5.76-5.04c12.96-4.56,25.92-8.64,38.88-12l4.32.96c8.4-.24,16.8,0,25.2.96,8.16.96,15.36,3.36,22.08,7.2,6.72,3.6,13.44,7.68,20.16,12.48,9.84,10.08,15.12,22.08,16.32,35.76-1.2,8.16-3.36,15.36-6.96,22.32l-16.8,15.6c-7.92,4.32-16.08,8.4-24.24,11.76-7.92,3.6-16.56,5.76-25.68,7.2l-2.64-.96-6.48,1.68-6.72-14.64Z"/>
    <path class="cls-1" d="M1551.46,417.84l-1.68-3.36-3.6-1.92-.72-9.36c2.16-7.44,3.84-15.36,5.04-23.28,1.2-8.16,1.92-16.08,2.64-24.24l-.96-4.32.96-4.32-.96-2.64,3.6-5.28,4.08-4.08h9.36l10.32,1.68,3.36,7.68-.72,7.68,1.68,6c-2.88,10.32-5.04,21.12-6.48,32.4s-5.04,21.84-10.8,31.68l-6.72,1.68-8.4-6ZM1673.15,286.56c-13.68-4.08-26.64-8.88-38.64-15.12-12.24-6-24.72-12.24-37.2-18.48l-3.36-6.96h-4.32l.96-3.36c5.28-4.8,9.6-9.84,13.68-15.6h2.4l6,5.04c14.16,4.08,27.6,9.36,40.08,16.08,12.48,6.72,25.2,12.96,38.16,19.44l.96,4.32-6,10.32h-2.4l-2.64-.96v4.56l-7.68.72ZM1639.07,438.48c-5.52-.48-10.08-3.12-13.44-7.68l-4.32-6-4.56-.96-.72-3.6c6.48-6.72,11.76-13.92,16.32-21.6,2.88-6.72,4.56-14.16,5.04-22.08-3.36-7.2-7.92-12.96-13.68-17.52-4.56-10.32-7.44-21.12-8.4-32.64,1.68-11.04,5.04-21.12,10.32-30.24l2.4-.96,3.36.96h.96l13.44,8.64c4.08,4.08,6,8.88,6,14.4l-2.64,10.56-2.4.72v8.64c1.2,4.8,2.64,9.12,4.32,12.96,3.84,2.88,6.72,6.72,8.4,11.28,7.44,8.16,10.56,17.76,9.36,29.28l-2.64,1.92v4.08c-4.32,8.16-8.64,16.08-12.48,23.52l-4.56,3.36c-1.44,4.08-4.08,8.16-7.44,12.24l-2.64.72ZM1726.67,412.56c-4.08-7.92-7.92-16.08-11.76-24-4.08-8.16-8.64-16.08-13.68-24.24l-6-6.96c-6.24-9.84-10.08-20.4-11.76-31.92,6.24-2.4,12.48-4.56,18.72-6.96,2.88,1.92,5.52,3.12,8.4,4.32,7.44,12,13.92,24.24,19.92,36.72,6,12.48,12,24.96,18.24,37.68l-2.64,3.36-19.44,12Z"/>
  </g>
</svg>